0
SECTION
2
HEADER
9
$INSUNITS
70
1
9
$ACADVER
1
AC1014
9
$HANDSEED
5
FFFF
0
ENDSEC
0
SECTION
2
TABLES
0
TABLE
2
VPORT
5
8
100
AcDbSymbolTable
0
ENDTAB
0
TABLE
2
LTYPE
5
5
100
AcDbSymbolTable
0
LTYPE
5
14
100
AcDbSymbolTableRecord
100
AcDbLinetypeTableRecord
2
BYBLOCK
70
0
0
LTYPE
5
15
100
AcDbSymbolTableRecord
100
AcDbLinetypeTableRecord
2
BYLAYER
70
0
0
ENDTAB
0
TABLE
2
LAYER
5
2
100
AcDbSymbolTable
70
2
0
LAYER
5
50
100
AcDbSymbolTableRecord
100
AcDbLayerTableRecord
2
0
70
0
6
CONTINUOUS
0
ENDTAB
0
TABLE
2
STYLE
5
3
100
AcDbSymbolTable
70
1
0
STYLE
5
11
100
AcDbSymbolTableRecord
100
AcDbTextStyleTableRecord
2
STANDARD
70
0
0
ENDTAB
0
TABLE
2
VIEW
5
6
100
AcDbSymbolTable
70
0
0
ENDTAB
0
TABLE
2
UCS
5
7
100
AcDbSymbolTable
70
0
0
ENDTAB
0
TABLE
2
APPID
5
9
100
AcDbSymbolTable
70
2
0
APPID
5
12
100
AcDbSymbolTableRecord
100
AcDbRegAppTableRecord
2
ACAD
70
0
0
ENDTAB
0
TABLE
2
DIMSTYLE
5
A
100
AcDbSymbolTable
70
1
0
ENDTAB
0
TABLE
2
BLOCK_RECORD
5
1
100
AcDbSymbolTable
70
1
0
BLOCK_RECORD
5
1F
100
AcDbSymbolTableRecord
100
AcDbBlockTableRecord
2
*MODEL_SPACE
0
BLOCK_RECORD
5
1B
100
AcDbSymbolTableRecord
100
AcDbBlockTableRecord
2
*PAPER_SPACE
0
ENDTAB
0
ENDSEC
0
SECTION
2
BLOCKS
0
BLOCK
5
20
100
AcDbEntity
100
AcDbBlockBegin
2
*MODEL_SPACE
0
ENDBLK
5
21
100
AcDbEntity
100
AcDbBlockEnd
0
BLOCK
5
1C
100
AcDbEntity
100
AcDbBlockBegin
2
*PAPER_SPACE
0
ENDBLK
5
1D
100
AcDbEntity
100
AcDbBlockEnd
0
ENDSEC
0
SECTION
2
ENTITIES
0
LWPOLYLINE
5
100
100
AcDbEntity
8
0
100
AcDbPolyline
90
4
70
1
43
0.0
10
6.0000001914857872
20
-6
10
-6.0000001914857872
20
-6
10
-6.0000001914857872
20
6
10
6.0000001914857872
20
6
0
ARC
5
101
100
AcDbEntity
8
0
100
AcDbCircle
10
-4.4699721032091606
20
-2.9089240004553365
30
0
40
0.50093441688925011
100
AcDbArc
50
-9.6571314367848
51
189.65713143678479
0
ARC
5
102
100
AcDbEntity
8
0
100
AcDbCircle
10
-3.4358714884788819
20
-4.5124514471929391
30
0
40
0.60785653198827971
100
AcDbArc
50
52.334378801416747
51
307.66562119858327
0
ARC
5
103
100
AcDbEntity
8
0
100
AcDbCircle
10
-1.4689699110735328
20
-2.5687643733835763
30
0
40
0.6414568508794688
100
AcDbArc
50
-41.39872188277662
51
221.39872188277667
0
ARC
5
104
100
AcDbEntity
8
0
100
AcDbCircle
10
-0.34504533385694236
20
-4.5124514471929391
30
0
40
0.5921014039267336
100
AcDbArc
50
54.356013131797127
51
305.64398686820289
0
ARC
5
105
100
AcDbEntity
8
0
100
AcDbCircle
10
1.5446947375689957
20
-3.4034055614299419
30
0
40
0.63245243740203838
100
AcDbArc
50
-220.4647318698091
51
40.4647318698091
0
ARC
5
106
100
AcDbEntity
8
0
100
AcDbCircle
10
2.6374305112591618
20
-4.550438816713644
30
0
40
0.61274108860227305
100
AcDbArc
50
57.916598787397398
51
302.08340121260267
0
ARC
5
107
100
AcDbEntity
8
0
100
AcDbCircle
10
4.4823846471701163
20
-3.4034055614299419
30
0
40
0.63245243740203794
100
AcDbArc
50
-220.4647318698091
51
40.464731869809107
0
LINE
5
108
100
AcDbEntity
8
0
100
AcDbLine
10
-3.0644394309431084
20
-4.9936247944551919
30
0
11
-3.0644394309431084
21
-6
31
0
0
LINE
5
109
100
AcDbEntity
8
0
100
AcDbLine
10
-4.9638079069783148
20
-2.9929566663647731
30
0
11
-6.0000001914857872
21
-2.9929566663647731
31
0
0
LINE
5
110
100
AcDbEntity
8
0
100
AcDbLine
10
-1.9501432583357845
20
-2.9929566663647731
30
0
11
-3.9761362994400073
21
-2.9929566663647731
31
0
0
LINE
5
111
100
AcDbEntity
8
0
100
AcDbLine
10
0
20
-4.9936247944551919
30
0
11
0
21
-6
31
0
0
LINE
5
112
100
AcDbEntity
8
0
100
AcDbLine
10
1.0635213903067426
20
-2.9929566663647731
30
0
11
-0.987796563811281
21
-2.9929566663647731
31
0
0
LINE
5
113
100
AcDbEntity
8
0
100
AcDbLine
10
2.9628898663419512
20
-5.0695995334966009
30
0
11
2.9628898663419512
21
-6
31
0
0
LINE
5
114
100
AcDbEntity
8
0
100
AcDbLine
10
6.0000001914857872
20
-2.9929566663647731
30
0
11
4.9635579944323691
21
-2.9929566663647731
31
0
0
LINE
5
115
100
AcDbEntity
8
0
100
AcDbLine
10
4.0012112999078635
20
-2.9929566663647731
30
0
11
2.0258680848312487
21
-2.9929566663647731
31
0
0
ARC
5
116
100
AcDbEntity
8
0
100
AcDbCircle
10
-4.4999999324167801
20
0.34929935026939085
30
0
40
0.60992624848367694
100
AcDbArc
50
-34.93810019159497
51
214.93810019159494
0
ARC
5
117
100
AcDbEntity
8
0
100
AcDbCircle
10
-3.19287291837025
20
-1.5874239940987191
30
0
40
0.58410548310280841
100
AcDbArc
50
77.29797749587236
51
282.70202250412763
0
ARC
5
118
100
AcDbEntity
8
0
100
AcDbCircle
10
-0.30655478520998669
20
-1.4999999774722603
30
0
40
0.58649452582773065
100
AcDbArc
50
58.487139443020929
51
301.51286055697909
0
ARC
5
119
100
AcDbEntity
8
0
100
AcDbCircle
10
1.4999999774722601
20
-0.49999999249075339
30
0
40
0.7071067705668691
100
AcDbArc
50
-225
51
45
0
ARC
5
120
100
AcDbEntity
8
0
100
AcDbCircle
10
3.2454209271521881
20
-1.6633987331401276
30
0
40
0.59105976869784604
100
AcDbArc
50
-118.5553558129378
51
118.5553558129378
0
ARC
5
121
100
AcDbEntity
8
0
100
AcDbCircle
10
-3.1537297631076138
20
1.5281934432152182
30
0
40
0.55111391205179527
100
AcDbArc
50
80.675956779280796
51
279.3240432207192
0
ARC
5
122
100
AcDbEntity
8
0
100
AcDbCircle
10
-1.5069572805942371
20
3.4408374847918219
30
0
40
0.67178001513713004
100
AcDbArc
50
-31.982487792913435
51
211.98248779291345
0
ARC
5
123
100
AcDbEntity
8
0
100
AcDbCircle
10
-1.4999999774722601
20
0.67054607409414368
30
0
40
0.83644009347581028
100
AcDbArc
50
-53.289545595737074
51
233.28954559573702
0
ARC
5
124
100
AcDbEntity
8
0
100
AcDbCircle
10
4.4999999324167801
20
0.45179550183180833
30
0
40
0.67388364571801929
100
AcDbArc
50
-42.100683839951827
51
222.10068383995184
0
ARC
5
125
100
AcDbEntity
8
0
100
AcDbCircle
10
3.109797349120655
20
1.5028685302014158
30
0
40
0.53891735840179034
100
AcDbArc
50
-105.81888725492124
51
105.81888725492122
0
ARC
5
126
100
AcDbEntity
8
0
100
AcDbCircle
10
4.6090092122391306
20
2.5749063519555797
30
0
40
0.70124619834127322
100
AcDbArc
50
-226.67239436108915
51
46.672394361089218
0
ARC
5
127
100
AcDbEntity
8
0
100
AcDbCircle
10
2.6119944642921156
20
4.5032175857208472
30
0
40
0.63715262757663538
100
AcDbArc
50
56.583286354903144
51
303.41671364509682
0
ARC
5
128
100
AcDbEntity
8
0
100
AcDbCircle
10
1.531760680134878
20
2.5438276547938892
30
0
40
0.71563946678286761
100
AcDbArc
50
-229.13378899893505
51
49.133788998935032
0
ARC
5
129
100
AcDbEntity
8
0
100
AcDbCircle
10
-0.26838085529232025
20
4.4999999324167801
30
0
40
0.56747535274951888
100
AcDbArc
50
61.77479932722273
51
298.22520067277731
0
ARC
5
130
100
AcDbEntity
8
0
100
AcDbCircle
10
-3.4135119515209156
20
4.3892554771587342
30
0
40
0.68995495171918197
100
AcDbArc
50
59.606544961319585
51
300.39345503868043
0
ARC
5
131
100
AcDbEntity
8
0
100
AcDbCircle
10
-4.4446471901953579
20
3.349689522379248
30
0
40
0.56028783371439739
100
AcDbArc
50
-28.188701311325371
51
208.18870131132539
0
LINE
5
132
100
AcDbEntity
8
0
100
AcDbLine
10
-6.0000001914857872
20
3.0850224569478919
30
0
11
-4.9384829939645121
21
3.0850224569478919
31
0
0
LINE
5
133
100
AcDbEntity
8
0
100
AcDbLine
10
-3.0644394309431084
20
6
30
0
11
-3.0644394309431084
21
4.9843909329831
31
0
0
LINE
5
134
100
AcDbEntity
8
0
100
AcDbLine
10
-3.9508113864262033
20
3.0850224569478919
30
0
11
-2.0767678234047984
21
3.0850224569478919
31
0
0
LINE
5
135
100
AcDbEntity
8
0
100
AcDbLine
10
0
20
6
30
0
11
0
21
4.9999999249075335
31
0
0
LINE
5
136
100
AcDbEntity
8
0
100
AcDbLine
10
-0.93714673778367596
20
3.0850224569478919
30
0
11
1.0635213903067426
21
3.0850224569478919
31
0
0
LINE
5
137
100
AcDbEntity
8
0
100
AcDbLine
10
2.9628898663419512
20
6
30
0
11
2.9628898663419512
21
5.0350407590107054
31
0
0
LINE
5
138
100
AcDbEntity
8
0
100
AcDbLine
10
1.9999999699630135
20
3.0850224569478919
30
0
11
4.1278358649768769
21
3.0850224569478919
31
0
0
LINE
5
139
100
AcDbEntity
8
0
100
AcDbLine
10
5.0901825595013834
20
3.0850224569478919
30
0
11
6.0000001914857872
21
3.0850224569478919
31
0
0
LINE
5
140
100
AcDbEntity
8
0
100
AcDbLine
10
2.9628898663419512
20
3.971394412430989
30
0
11
2.9628898663419512
21
2.0213761103681755
31
0
0
LINE
5
141
100
AcDbEntity
8
0
100
AcDbLine
10
4.9999999249075335
20
0
30
0
11
6.0000001914857872
21
0
31
0
0
LINE
5
142
100
AcDbEntity
8
0
100
AcDbLine
10
2.9628898663419512
20
0.98436095003465607
30
0
11
2.9628898663419512
21
-1.1442380163571708
31
0
0
LINE
5
143
100
AcDbEntity
8
0
100
AcDbLine
10
2.9628898663419512
20
-2.1825594499230845
30
0
11
2.9628898663419512
21
-4.0312780999306863
31
0
0
LINE
5
144
100
AcDbEntity
8
0
100
AcDbLine
10
1.9999999699630135
20
0
30
0
11
3.9999999399260271
21
0
31
0
0
LINE
5
145
100
AcDbEntity
8
0
100
AcDbLine
10
0
20
3.9999999399260271
30
0
11
0
21
-0.99999998498150677
31
0
0
LINE
5
146
100
AcDbEntity
8
0
100
AcDbLine
10
0
20
-1.9999999699630135
30
0
11
0
21
-4.0312780999306863
31
0
0
LINE
5
147
100
AcDbEntity
8
0
100
AcDbLine
10
-3.0644394309431084
20
3.7941200213343689
30
0
11
-3.0644394309431084
21
-1.0176134512881569
31
0
0
LINE
5
148
100
AcDbEntity
8
0
100
AcDbLine
10
-3.0644394309431084
20
-2.1572345369092814
30
0
11
-3.0644394309431084
21
-4.0312780999306863
31
0
0
LINE
5
149
100
AcDbEntity
8
0
100
AcDbLine
10
-6.0000001914857872
20
0
30
0
11
-4.9999999249075335
21
0
31
0
0
LINE
5
150
100
AcDbEntity
8
0
100
AcDbLine
10
-3.9999999399260271
20
0
30
0
11
-1.9999999699630135
21
0
31
0
0
LINE
5
151
100
AcDbEntity
8
0
100
AcDbLine
10
-0.99999998498150677
20
0
30
0
11
0.99999998498150677
21
0
31
0
0
ENDSEC
0
SECTION
2
OBJECTS
0
DICTIONARY
5
C
100
AcDbDictionary
3
ACAD_GROUP
350
D
3
ACAD_MLINESTYLE
350
17
0
DICTIONARY
5
D
100
AcDbDictionary
0
DICTIONARY
5
1A
330
C
100
AcDbDictionary
0
DICTIONARY
5
17
100
AcDbDictionary
0
ENDSEC
0
EOF
