0
SECTION
2
HEADER
9
$INSUNITS
70
1
9
$ACADVER
1
AC1014
9
$HANDSEED
5
FFFF
0
ENDSEC
0
SECTION
2
TABLES
0
TABLE
2
VPORT
5
8
100
AcDbSymbolTable
0
ENDTAB
0
TABLE
2
LTYPE
5
5
100
AcDbSymbolTable
0
LTYPE
5
14
100
AcDbSymbolTableRecord
100
AcDbLinetypeTableRecord
2
BYBLOCK
70
0
0
LTYPE
5
15
100
AcDbSymbolTableRecord
100
AcDbLinetypeTableRecord
2
BYLAYER
70
0
0
ENDTAB
0
TABLE
2
LAYER
5
2
100
AcDbSymbolTable
70
2
0
LAYER
5
50
100
AcDbSymbolTableRecord
100
AcDbLayerTableRecord
2
0
70
0
6
CONTINUOUS
0
ENDTAB
0
TABLE
2
STYLE
5
3
100
AcDbSymbolTable
70
1
0
STYLE
5
11
100
AcDbSymbolTableRecord
100
AcDbTextStyleTableRecord
2
STANDARD
70
0
0
ENDTAB
0
TABLE
2
VIEW
5
6
100
AcDbSymbolTable
70
0
0
ENDTAB
0
TABLE
2
UCS
5
7
100
AcDbSymbolTable
70
0
0
ENDTAB
0
TABLE
2
APPID
5
9
100
AcDbSymbolTable
70
2
0
APPID
5
12
100
AcDbSymbolTableRecord
100
AcDbRegAppTableRecord
2
ACAD
70
0
0
ENDTAB
0
TABLE
2
DIMSTYLE
5
A
100
AcDbSymbolTable
70
1
0
ENDTAB
0
TABLE
2
BLOCK_RECORD
5
1
100
AcDbSymbolTable
70
1
0
BLOCK_RECORD
5
1F
100
AcDbSymbolTableRecord
100
AcDbBlockTableRecord
2
*MODEL_SPACE
0
BLOCK_RECORD
5
1B
100
AcDbSymbolTableRecord
100
AcDbBlockTableRecord
2
*PAPER_SPACE
0
ENDTAB
0
ENDSEC
0
SECTION
2
BLOCKS
0
BLOCK
5
20
100
AcDbEntity
100
AcDbBlockBegin
2
*MODEL_SPACE
0
ENDBLK
5
21
100
AcDbEntity
100
AcDbBlockEnd
0
BLOCK
5
1C
100
AcDbEntity
100
AcDbBlockBegin
2
*PAPER_SPACE
0
ENDBLK
5
1D
100
AcDbEntity
100
AcDbBlockEnd
0
ENDSEC
0
SECTION
2
ENTITIES
0
LINE
5
100
100
AcDbEntity
8
0
100
AcDbLine
10
5.9999999098890404
20
-5.9999999098890404
30
0
11
-4.9999999249075335
21
-5.9999999098890404
31
0
0
LINE
5
101
100
AcDbEntity
8
0
100
AcDbLine
10
-5.9999999098890404
20
5.9999999098890404
30
0
11
5.9999999098890404
21
5.9999999098890404
31
0
0
LINE
5
102
100
AcDbEntity
8
0
100
AcDbLine
10
5.9999999098890404
20
5.9999999098890404
30
0
11
5.9999999098890404
21
-5.9999999098890404
31
0
0
LINE
5
103
100
AcDbEntity
8
0
100
AcDbLine
10
5.9999999098890404
20
-5.9999999098890404
30
0
11
-5.9999999098890404
21
5.9999999098890404
31
0
0
LINE
5
104
100
AcDbEntity
8
0
100
AcDbLine
10
-5.9999999098890404
20
-5.9999999098890404
30
0
11
5.9999999098890404
21
5.9999999098890404
31
0
0
LINE
5
105
100
AcDbEntity
8
0
100
AcDbLine
10
1.9999999699630135
20
5.9999999098890404
30
0
11
1.9999999699630135
21
-5.9999999098890404
31
0
0
LINE
5
106
100
AcDbEntity
8
0
100
AcDbLine
10
-5.9999999098890404
20
0
30
0
11
5.9999999098890404
21
0
31
0
0
ARC
5
107
100
AcDbEntity
8
0
100
AcDbCircle
10
-4.4056590207224913
20
4.9999999249075335
30
0
40
0.6438627822163554
100
AcDbArc
50
50.946952231048314
51
309.05304776895167
0
ARC
5
108
100
AcDbEntity
8
0
100
AcDbCircle
10
-1.5070033580056033
20
3.4999999474352737
30
0
40
0.70217209563769956
100
AcDbArc
50
-134.59591252164455
51
134.59591252164455
0
ARC
5
109
100
AcDbEntity
8
0
100
AcDbCircle
10
-2.0624725080751021
20
-0.6689023331759536
30
0
40
1.4011606588807615
100
AcDbArc
50
87.444547311946039
51
251.80447430297002
0
ARC
5
110
100
AcDbEntity
8
0
100
AcDbCircle
10
0
20
-1.6249999755949485
30
0
40
0.62499999061344169
100
AcDbArc
50
-36.869897645844013
51
216.86989764584402
0
ARC
5
111
100
AcDbEntity
8
0
100
AcDbCircle
10
1.4999999774722603
20
0.62499999061344158
30
0
40
0.62499999061344169
100
AcDbArc
50
36.869897645844041
51
270
0
ARC
5
112
100
AcDbEntity
8
0
100
AcDbCircle
10
3.4502667355048677
20
2.3194891422730413
30
0
40
0.87481515887983585
100
AcDbArc
50
51.067878164136332
51
201.42036126630626
0
ARC
5
113
100
AcDbEntity
8
0
100
AcDbCircle
10
3.4810694771474799
20
4.7499999286621568
30
0
40
0.57601113124856029
100
AcDbArc
50
25.722912149427252
51
334.2770878505728
0
ARC
5
114
100
AcDbEntity
8
0
100
AcDbCircle
10
3.7866223304053985
20
0.93227763885935999
30
0
40
0.48207257523605312
100
AcDbArc
50
63.728481945103219
51
296.27151805489677
0
ARC
5
115
100
AcDbEntity
8
0
100
AcDbCircle
10
3.0778406255279682
20
-1.4999999774722601
30
0
40
0.65438405051161597
100
AcDbArc
50
-49.824973434726708
51
229.82497343472676
0
ARC
5
116
100
AcDbEntity
8
0
100
AcDbCircle
10
2.9999999549445202
20
-3.7752550719097675
30
0
40
0.54818815035569646
100
AcDbArc
50
-24.203428339329754
51
204.20342833932975
0
ARC
5
117
100
AcDbEntity
8
0
100
AcDbCircle
10
0.58849194936796712
20
-5.499999917398287
30
0
40
0.64756378517121194
100
AcDbArc
50
-50.545070205092706
51
155.33707097927487
0
ARC
5
118
100
AcDbEntity
8
0
100
AcDbCircle
10
-2.4999999624537677
20
-3.2851402883676966
30
0
40
0.71485965155833087
100
AcDbArc
50
45.618069364110561
51
270.00000000000006
0
ARC
5
119
100
AcDbEntity
8
0
100
AcDbCircle
10
-5.3674937258668214
20
-3.3674937559038085
30
0
40
0.73151607403382035
100
AcDbArc
50
-59.842890211087933
51
149.84289021108791
0
ARC
5
120
100
AcDbEntity
8
0
100
AcDbCircle
10
-5.2645236753241429
20
-5.1881943408143698
30
0
40
0.85381561037212239
100
AcDbArc
50
-71.951998069584505
51
149.47406977269026
0
ARC
5
121
100
AcDbEntity
8
0
100
AcDbCircle
10
-5.6749607797695267
20
0.24999999624537655
30
0
40
0.81740468509364783
100
AcDbArc
50
-113.43120980897999
51
113.43120980897994
0
ARC
5
122
100
AcDbEntity
8
0
100
AcDbCircle
10
-3.7499999436806504
20
1.8728691524662049
30
0
40
0.6751244707151004
100
AcDbArc
50
-111.73424858506637
51
111.73424858506635
0
ARC
5
123
100
AcDbEntity
8
0
100
AcDbCircle
10
0.74999998873612994
20
3.3785684054575302
30
0
40
0.97400058271854539
100
AcDbArc
50
-219.64430959574463
51
39.644309595744673
0
ARC
5
124
100
AcDbEntity
8
0
100
AcDbCircle
10
0.69283096103935971
20
-3.5183371650535622
30
0
40
0.76665389409312168
100
AcDbArc
50
-38.922325870347066
51
154.64977894807137
0
LINE
5
125
100
AcDbEntity
8
0
100
AcDbLine
10
-3.9999999399260271
20
5.9999999098890404
30
0
11
-3.9999999399260271
21
5.499999917398287
31
0
0
LINE
5
126
100
AcDbEntity
8
0
100
AcDbLine
10
-3.9999999399260271
20
4.4999999324167801
30
0
11
-3.9999999399260271
21
2.4999999624537668
31
0
0
LINE
5
127
100
AcDbEntity
8
0
100
AcDbLine
10
-5.9999999098890404
20
0.99999998498150677
30
0
11
-5.9999999098890404
21
5.9999999098890404
31
0
0
LINE
5
128
100
AcDbEntity
8
0
100
AcDbLine
10
-5.9999999098890404
20
-4.7545172663622379
30
0
11
-5.9999999098890404
21
-3.9999999399260271
31
0
0
LINE
5
129
100
AcDbEntity
8
0
100
AcDbLine
10
-5.9999999098890404
20
-2.9999999549445202
30
0
11
-5.9999999098890404
21
-0.49999999249075339
31
0
0
LINE
5
130
100
AcDbEntity
8
0
100
AcDbLine
10
-5.9999999098890404
20
-3.9999999399260271
30
0
11
-5.9999999098890404
21
-3.823784548159197
31
0
0
LINE
5
131
100
AcDbEntity
8
0
100
AcDbLine
10
-5.9999999098890404
20
-3.823784548159197
30
0
11
-5.9999999098890404
21
-2.9999999549445202
31
0
0
LINE
5
132
100
AcDbEntity
8
0
100
AcDbLine
10
-1.9999999699630135
20
-5.9999999098890404
30
0
11
-1.9999999699630138
21
-3.9999999399260271
31
0
0
LINE
5
133
100
AcDbEntity
8
0
100
AcDbLine
10
-4.9999999249075335
20
-3.9999999399260271
30
0
11
-2.4999999624537668
21
-3.9999999399260271
31
0
0
LINE
5
134
100
AcDbEntity
8
0
100
AcDbLine
10
3.4999999474352737
20
-3.9999999399260271
30
0
11
5.9999999098890404
21
-3.9999999399260271
31
0
0
LINE
5
135
100
AcDbEntity
8
0
100
AcDbLine
10
-1.9999999699630138
20
-3.9999999399260271
30
0
11
0
21
-3.9999999399260284
31
0
0
LINE
5
136
100
AcDbEntity
8
0
100
AcDbLine
10
1.2892864620034341
20
-3.9999999399260271
30
0
11
2.4999999624537668
21
-3.9999999399260271
31
0
0
LINE
5
137
100
AcDbEntity
8
0
100
AcDbLine
10
0
20
-3.9999999399260284
30
0
11
0
21
-5.2297850373595338
31
0
0
LINE
5
138
100
AcDbEntity
8
0
100
AcDbLine
10
-1.9999999699630135
20
-2.7742348872068319
30
0
11
-1.9999999699630138
21
-3.9999999399260271
31
0
0
LINE
5
139
100
AcDbEntity
8
0
100
AcDbLine
10
-1.9999999699630135
20
-2.7742348872068319
30
0
11
-1.9999999699630129
21
-1.9999999699630129
31
0
0
LINE
5
140
100
AcDbEntity
8
0
100
AcDbLine
10
-1.9999999699630135
20
0.73086492389823698
30
0
11
-1.9999999699630135
21
2.9999999549445202
31
0
0
LINE
5
141
100
AcDbEntity
8
0
100
AcDbLine
10
-1.9999999699630135
20
3.9999999399260271
30
0
11
-1.9999999699630135
21
5.9999999098890404
31
0
0
LINE
5
142
100
AcDbEntity
8
0
100
AcDbLine
10
-5.9999999098890404
20
3.9999999399260271
30
0
11
-1.9999999699630135
21
3.9999999399260271
31
0
0
LINE
5
143
100
AcDbEntity
8
0
100
AcDbLine
10
-1.0140067460481932
20
3.9999999399260271
30
0
11
0
21
3.9999999399260271
31
0
0
LINE
5
144
100
AcDbEntity
8
0
100
AcDbLine
10
1.4999999774722601
20
3.9999999399260271
30
0
11
5.9999999098890404
21
3.9999999399260271
31
0
0
LINE
5
145
100
AcDbEntity
8
0
100
AcDbLine
10
0
20
5.9999999098890404
30
0
11
0
21
3.9999999399260271
31
0
0
LINE
5
146
100
AcDbEntity
8
0
100
AcDbLine
10
-1.7483827159451283e-16
20
2.7571368709890334
30
0
11
0
21
-3.1900941868294663
31
0
0
LINE
5
147
100
AcDbEntity
8
0
100
AcDbLine
10
3.9999999399260271
20
5.9999999098890404
30
0
11
3.9999999399260271
21
4.9999999249075335
31
0
0
LINE
5
148
100
AcDbEntity
8
0
100
AcDbLine
10
5.9999999098890404
20
1.9999999699630135
30
0
11
3.9999999399260271
21
1.9999999699630135
31
0
0
LINE
5
149
100
AcDbEntity
8
0
100
AcDbLine
10
2.6358784798291084
20
1.9999999699630135
30
0
11
-5.9999999098890404
21
1.9999999699630135
31
0
0
LINE
5
150
100
AcDbEntity
8
0
100
AcDbLine
10
3.9999999399260271
20
4.4999999324167801
30
0
11
3.9999999399260271
21
2.9999999549445202
31
0
0
LINE
5
151
100
AcDbEntity
8
0
100
AcDbLine
10
3.9999999399260271
20
1.9999999699630135
30
0
11
3.9999999399260271
21
1.3645552852279665
31
0
0
LINE
5
152
100
AcDbEntity
8
0
100
AcDbLine
10
3.9999999399260271
20
0.49999999249075339
30
0
11
3.9999999399260271
21
-5.9999999098890404
31
0
0
LINE
5
153
100
AcDbEntity
8
0
100
AcDbLine
10
5.9999999098890404
20
-1.9999999699630135
30
0
11
3.4999999474352737
21
-1.9999999699630135
31
0
0
LINE
5
154
100
AcDbEntity
8
0
100
AcDbLine
10
2.6556813036206632
20
-1.9999999699630135
30
0
11
-5.9999999098890404
21
-1.9999999699630135
31
0
0
LINE
5
155
100
AcDbEntity
8
0
100
AcDbLine
10
-3.9999999399260271
20
1.2457383424786426
30
0
11
-3.9999999399260271
21
0
31
0
0
LINE
5
156
100
AcDbEntity
8
0
100
AcDbLine
10
-3.9999999399260271
20
-1.9999999699630135
30
0
11
-3.9999999399260271
21
-5.9999999098890404
31
0
0
ENDSEC
0
SECTION
2
OBJECTS
0
DICTIONARY
5
C
100
AcDbDictionary
3
ACAD_GROUP
350
D
3
ACAD_MLINESTYLE
350
17
0
DICTIONARY
5
D
100
AcDbDictionary
0
DICTIONARY
5
1A
330
C
100
AcDbDictionary
0
DICTIONARY
5
17
100
AcDbDictionary
0
ENDSEC
0
EOF
