22300 0 2 4           
30 Autodesk Translation Framework 18 ASM 223.11.0.30 NT 24 Thu Oct 12 10:34:12 2017 
25.39999999999999858 9.999999999999999547e-07 1.000000000000000036e-10 
asmheader $-1 -1 @11 223.11.0.30 #
body $2 -1 $-1 $3 $-1 $4 #
rgb_color-st-attrib $-1 -1 $5 $-1 $1 0.627450980392156854 0.627450980392156854 0.627450980392156854 #
lump $-1 -1 $-1 $-1 $6 $1 #
transform $-1 -1 1 0 0 0 1 0 0 0 1 0 0 0 1 no_rotate no_reflect no_shear #
DXID-attrib $-1 -1 $-1 $2 $1 @10 ASM ENTITY @226 {"label":"Body3","asset":"9da4db31-0206-4c54-9344-3687fb140ffb","segment":"0","entity":"487","revision":"a5f48330-4afc-4303-bc2c-a06531783730","meta":"D3937028-C20C-4E65-B010-94AD418A5C20","metaName":"BodyMetaType","extra":""} #
shell $7 -1 $-1 $-1 $-1 $8 $-1 $3 #
string_attrib-name_attrib-gen-attrib $-1 -1 $-1 $-1 $6 keep keep_kept ignore copy @17 ATF_ExternalShell @4 true #
face $-1 -1 $-1 $9 $10 $6 $-1 $11 reversed single #
face $-1 -1 $-1 $12 $13 $6 $-1 $14 reversed single #
loop $-1 -1 $-1 $15 $16 $8 #
cone-surface $-1 -1 $-1 2.912851999510778445 0.2044966968415849184 0 -0.1396438386770964268 -0.9902017967664598075 0 0 0 0.04999999999999999584 1 I I 0 1 0.04999999999999999584 forward I I I I #
face $-1 -1 $-1 $17 $18 $6 $-1 $19 reversed single #
loop $-1 -1 $-1 $20 $21 $9 #
cone-surface $-1 -1 $-1 0.4999999999999999445 0 -1.110223024625156294e-16 1 0 -2.220446049250312588e-16 -1.171285290979539835e-16 0 -0.5274999999999999689 1 I I 0 1 0.5274999999999999689 forward I I I I #
loop $-1 -1 $-1 $-1 $22 $8 #
coedge $-1 -1 $-1 $23 $23 $24 $25 reversed $10 0 $-1 #
face $-1 -1 $-1 $26 $27 $6 $-1 $28 forward single #
loop $-1 -1 $-1 $29 $30 $12 #
plane-surface $-1 -1 $-1 0.999999999999999889 0 -2.220446049250312588e-16 1 0 -2.220446049250312588e-16 -8.741913579725638848e-17 0 -0.3937007874015747699 forward_v I I I I #
loop $-1 -1 $-1 $-1 $31 $9 #
coedge $-1 -1 $-1 $21 $21 $32 $33 reversed $13 0 $-1 #
coedge $-1 -1 $-1 $22 $22 $34 $35 reversed $15 0 $-1 #
coedge $-1 -1 $-1 $16 $16 $36 $37 reversed $10 0 $-1 #
coedge $-1 -1 $-1 $36 $36 $16 $25 forward $27 0 $-1 #
edge $-1 -1 $-1 $38 0.1886060434513717188 $39 0.572203001663870614 $24 $40 forward @7 unknown #
face $-1 -1 $-1 $41 $42 $6 $-1 $43 forward single #
loop $-1 -1 $-1 $44 $24 $17 #
cone-surface $-1 -1 $-1 1.000000031914298537 -2.479524658109012903e-15 0 1 1.271551066141911392e-15 0 -6.954499123809218469e-16 0.5500000000000024869 0 1 I I -0.1396438386770976758 0.9902017967664594744 0.5500000000000024869 forward I I I I #
loop $-1 -1 $-1 $-1 $45 $12 #
coedge $-1 -1 $-1 $30 $30 $46 $47 forward $18 0 $-1 #
coedge $-1 -1 $-1 $31 $31 $45 $48 forward $20 0 $-1 #
coedge $-1 -1 $-1 $32 $32 $21 $33 forward $42 0 $-1 #
edge $-1 -1 $-1 $49 0 $49 6.283185307179586232 $32 $50 forward @7 unknown #
coedge $-1 -1 $-1 $34 $34 $22 $35 forward $51 0 $-1 #
edge $-1 -1 $-1 $52 0 $52 0.7714629966361421509 $34 $53 forward @7 unknown #
coedge $-1 -1 $-1 $24 $24 $23 $37 forward $27 0 $-1 #
edge $-1 -1 $-1 $39 0.572203001663870614 $38 0.9557999598763695648 $36 $54 forward @7 unknown #
vertex $-1 -1 $-1 $25 0 $55 #
vertex $-1 -1 $-1 $25 1 $56 #
intcurve-curve $-1 -1 $-1 forward { int_int_cur 22311 full nubs 3 open 9 
	0.1886060434513717188 3 0.2357539433477988944 2 0.28290184324422607 2 0.3300569650734847538 2 0.3772120869027434376 2 
	0.4259604442436875082 2 0.4747088015846315789 2 0.523455901624251041 2 0.572203001663870614 3 
	2.97283537724988367 0.2717796396652146229 2.048885995248197183e-18 
	2.97283537724988367 0.2717796396652146229 0.00618738843785133618 
	2.97159621440945676 0.2717214382906472658 0.01278519707062051106 
	2.966577448125305771 0.2715870092808718161 0.0249391962858070762 
	2.96280024038429568 0.271522526453255475 0.03049650305090457342 
	2.954123815872554903 0.2716219021808595757 0.03932080712662981703 
	2.948631696543029257 0.2717942321368749803 0.04319061329874861882 
	2.936603593081683172 0.2726299248089433802 0.04844521576847965472 
	2.930068161468352805 0.2733055856614475254 0.04982931368362487901 
	2.917605720865926511 0.2750346070877784932 0.05014455038400142395 
	2.910867063899070128 0.2762164709230138238 0.04901316169967553232 
	2.898506947514029264 0.2788140553788936438 0.04406280019684770399 
	2.892882446183780765 0.2802166574370683616 0.04024454798844499109 
	2.884005778488342386 0.2826104227370862532 0.03134631892610108966 
	2.880166858538554475 0.2837579001188004213 0.02567847306445537534 
	2.875071999171860959 0.2853303666072821154 0.01320447909798028174 
	2.873815197573237779 0.2857440235329242739 0.006397257223047193506 
	2.873815197573237779 0.2857440235329242739 3.414809992080328638e-18 
	5.274500060184267644e-05 
	
	cone 2.912851999510778445 0.2044966968415849184 0 -0.1396438386770964268 -0.9902017967664598075 0 0 0 0.04999999999999999584 1 I I 0 1 0.04999999999999999584 forward I I I I 
	cone 1.000000031914298537 -2.479524658109012903e-15 0 1 1.271551066141911392e-15 0 -6.954499123809218469e-16 0.5500000000000024869 0 1 I I -0.1396438386770976758 0.9902017967664594744 0.5500000000000024869 forward I I I I 
	nullbs 
	nullbs 
	I I 
	0 
	0 
	0 
	
	0 } I I #
face $-1 -1 $-1 $57 $58 $6 $-1 $59 forward single #
loop $-1 -1 $-1 $60 $32 $26 #
plane-surface $-1 -1 $-1 0 -2.479524658109012903e-15 0 -1 0 2.220446049250312588e-16 8.741913579725638848e-17 0 0.3937007874015747699 forward_v I I I I #
loop $-1 -1 $-1 $61 $62 $17 #
coedge $-1 -1 $-1 $45 $45 $31 $48 reversed $29 0 $-1 #
coedge $-1 -1 $-1 $46 $46 $30 $47 reversed $63 0 $-1 #
edge $-1 -1 $-1 $64 -3.141592653589793116 $64 3.141592653589793116 $46 $65 forward @7 unknown #
edge $-1 -1 $-1 $66 0 $66 6.283185307179586232 $45 $67 forward @7 unknown #
vertex $-1 -1 $-1 $33 0 $68 #
ellipse-curve $-1 -1 $-1 0 0 0 1 0 -2.220446049250312588e-16 -1.171285290979539835e-16 0 -0.5274999999999999689 1 I I #
loop $-1 -1 $-1 $63 $34 $57 #
vertex $-1 -1 $-1 $35 0 $69 #
intcurve-curve $-1 -1 $-1 forward { int_int_cur 22311 full nubs 3 periodic 17 
	0 3 0.04794720328183620095 2 0.0958944065636724019 2 0.1437962947609580378 2 0.1916981829582436736 2 
	0.2396000711555293372 2 0.2875019593528149731 2 0.3354491626346511879 2 0.3833963659164874027 2 0.4324072007926167971 2 
	0.4814180356687461915 2 0.5294238584725304841 2 0.5774296812763147768 2 0.6254355040800990695 2 0.6734413268838833622 2 
	0.7224521617600128121 2 0.7714629966361421509 3 
	2.918556807685176224 0.2449489742783177992 -0.05000000000000000971 
	2.912264523789921622 0.2449489742783177992 -0.05000000000000000971 
	2.905555248714765781 0.245212084991443785 -0.04876191325188906911 
	2.893246901411554273 0.246168519038718947 -0.04367780755552977401 
	2.887647028961351392 0.2468474344941872234 -0.0398310257255631156 
	2.878836136982807492 0.24811808427551163 -0.03094421886642654065 
	2.875037843184040209 0.2487914591228763406 -0.02531865074809907384 
	2.870007817873391431 0.2497388394478280704 -0.01298985231589740337 
	2.868774373902545527 0.2499999999999999722 -0.006286337033764526246 
	2.868774373902545527 0.2499999999999999722 0.0062863370337645115 
	2.870007817873391431 0.2497388394478281259 0.0129898523158976445 
	2.875037843184040209 0.2487914591228763961 0.02531865074809928548 
	2.878836136982807492 0.24811808427551163 0.03094421886642650596 
	2.887647028961351392 0.2468474344941872234 0.03983102572556309479 
	2.893246901411554273 0.246168519038718947 0.04367780755552977401 
	2.905555248714765781 0.245212084991443785 0.04876191325188906911 
	2.912264523789921622 0.2449489742783177992 0.05000000000000000971 
	2.924988675779156555 0.2449489742783177992 0.05000000000000000971 
	2.931836739932784486 0.2452223272514994779 0.04871260434760947555 
	2.9444506499372185 0.2461922371519034147 0.04354641088783473696 
	2.950218259874885618 0.2468741120790616528 0.03966917459641432914 
	2.959267449300625685 0.2481347670613706924 0.03080222513340733284 
	2.963200189158715858 0.2487985687740863205 0.0252389867099875112 
	2.968450569641440495 0.2497378873407457012 0.01298930025744110539 
	2.969763889702813575 0.2499999999999999722 0.006299976745903463661 
	2.969763889702813575 0.2499999999999999722 -0.006299976745903435038 
	2.968450569641440495 0.2497378873407457012 -0.01298930025744108457 
	2.963200189158715858 0.2487985687740863205 -0.02523898670998748692 
	2.959267449300625685 0.2481347670613706924 -0.03080222513340730509 
	2.950218259874885618 0.2468741120790616528 -0.0396691745964143222 
	2.9444506499372185 0.2461922371519034147 -0.04354641088783473696 
	2.931836739932784486 0.2452223272514994779 -0.04871260434760947555 
	2.924988675779156555 0.2449489742783177992 -0.05000000000000000971 
	2.918556807685176224 0.2449489742783177992 -0.05000000000000000971 
	5.332911822843748102e-05 
	
	cone 2.912851999510778445 0.2044966968415849184 0 -0.1396438386770964268 -0.9902017967664598075 0 0 0 0.04999999999999999584 1 I I 0 1 0.04999999999999999584 forward I I I I 
	cone 0 0 0 1 0 0 0 0 -0.2499999999999999722 1 I I -0 -1 0.2499999999999999722 forward I I I I 
	nullbs 
	nullbs 
	I I 
	0 
	0 
	0 
	
	0 } I I #
intcurve-curve $-1 -1 $-1 forward { int_int_cur 22311 full nubs 3 open 9 
	0.572203001663870614 3 0.6209501017034901871 2 0.6696972017431096491 2 0.7184455590840537198 2 0.7671939164249977905 3 
	0.8143490382542564188 2 0.8615041600835151581 2 0.9086520599799423614 2 0.9557999598763695648 3 
	2.873815197573237779 0.2857440235329242739 3.414809992080328638e-18 
	2.873815197573237779 0.2857440235329242739 -0.006397257223047186567 
	2.875071999171860959 0.2853303666072821154 -0.0132044790979802748 
	2.880166858538554475 0.2837579001188004213 -0.02567847306445536493 
	2.884005778488342386 0.2826104227370862532 -0.03134631892610106191 
	2.892882446183780765 0.2802166574370683616 -0.04024454798844497028 
	2.898506947514029264 0.2788140553788936438 -0.04406280019684769705 
	2.910867063899070128 0.2762164709230138238 -0.04901316169967553232 
	2.917605720865926511 0.2750346070877784932 -0.05014455038400142395 
	2.923940459846033235 0.274155734339154411 -0.04998431353493296148 
	2.930068161468352805 0.2733055856614475254 -0.04982931368362487901 
	2.936603593081683172 0.2726299248089433802 -0.04844521576847965472 
	2.948631696543029257 0.2717942321368749803 -0.04319061329874861882 
	2.954123815872554903 0.2716219021808595757 -0.03932080712662981009 
	2.96280024038429568 0.271522526453255475 -0.03049650305090456301 
	2.966577448125305771 0.2715870092808718161 -0.0249391962858070762 
	2.97159621440945676 0.2717214382906472658 -0.01278519707062051626 
	2.97283537724988367 0.2717796396652146229 -0.006187388437851331843 
	2.97283537724988367 0.2717796396652146229 2.048885995248197183e-18 
	5.274500060184267644e-05 
	
	cone 2.912851999510778445 0.2044966968415849184 0 -0.1396438386770964268 -0.9902017967664598075 0 0 0 0.04999999999999999584 1 I I 0 1 0.04999999999999999584 forward I I I I 
	cone 1.000000031914298537 -2.479524658109012903e-15 0 1 1.271551066141911392e-15 0 -6.954499123809218469e-16 0.5500000000000024869 0 1 I I -0.1396438386770976758 0.9902017967664594744 0.5500000000000024869 forward I I I I 
	nullbs 
	nullbs 
	I I 
	0 
	0 
	0 
	
	0 } I I #
point $-1 -1 $-1 2.972835377249884115 0.2717796396652146229 0 #
point $-1 -1 $-1 2.873815197573237779 0.2857440235329242184 0 #
face $-1 -1 $-1 $70 $51 $6 $-1 $71 reversed single #
loop $-1 -1 $-1 $72 $73 $41 #
cone-surface $-1 -1 $-1 0.4999999999999999445 -2.479524658109012903e-15 -1.110223024625156294e-16 1 0 -2.220446049250312588e-16 -1.221245327087672047e-16 0 -0.5500000000000000444 1 I I 0 1 0.5500000000000000444 forward I I I I #
loop $-1 -1 $-1 $-1 $74 $26 #
loop $-1 -1 $-1 $-1 $75 $17 #
coedge $-1 -1 $-1 $62 $62 $-1 $76 forward $44 0 $-1 #
loop $-1 -1 $-1 $77 $46 $57 #
vertex $-1 -1 $-1 $47 0 $78 #
ellipse-curve $-1 -1 $-1 1.000000031914297871 0 0 1 1.271551066141911392e-15 0 0 0 -0.2499999999999999722 1 I I #
vertex $-1 -1 $-1 $48 0 $79 #
ellipse-curve $-1 -1 $-1 0.999999999999999889 0 -2.220446049250312588e-16 1 0 -2.220446049250312588e-16 -1.171285290979539835e-16 0 -0.5274999999999999689 1 I I #
point $-1 -1 $-1 -8.741913579725641313e-17 0 -0.5274999999999999689 #
point $-1 -1 $-1 2.918556807685176224 0.2449489742783177992 -0.0499999999999999889 #
face $-1 -1 $-1 $-1 $80 $6 $-1 $81 reversed single #
cone-surface $-1 -1 $-1 0 0 0 1 0 0 0 0 -0.2499999999999999722 1 I I 0 1 0.2499999999999999722 forward I I I I #
loop $-1 -1 $-1 $-1 $82 $41 #
coedge $-1 -1 $-1 $73 $73 $74 $83 reversed $58 0 $-1 #
coedge $-1 -1 $-1 $74 $74 $73 $83 forward $60 0 $-1 #
coedge $-1 -1 $-1 $75 $75 $82 $84 forward $61 0 $-1 #
edge $-1 -1 $-1 $85 1 $85 0 $62 $-1 forward @7 unknown #
loop $-1 -1 $-1 $-1 $86 $57 #
point $-1 -1 $-1 1.000000031914297871 -3.061616997868383018e-17 0.2499999999999999722 #
point $-1 -1 $-1 0.999999999999999889 0 -0.5275000000000000799 #
loop $-1 -1 $-1 $-1 $87 $70 #
plane-surface $-1 -1 $-1 3 0 0 1 0 0 0 0 -0.3937007874015747699 forward_v I I I I #
coedge $-1 -1 $-1 $82 $82 $75 $84 reversed $72 0 $-1 #
edge $-1 -1 $-1 $88 0 $88 6.283185307179586232 $74 $89 forward @7 unknown #
edge $-1 -1 $-1 $90 1.570796326794896558 $90 7.85398163397448279 $75 $91 forward @7 unknown #
vertex $-1 -1 $-1 $76 0 $92 #
coedge $-1 -1 $-1 $86 $86 $87 $93 forward $77 0 $-1 #
coedge $-1 -1 $-1 $87 $87 $86 $93 reversed $80 0 $-1 #
vertex $-1 -1 $-1 $83 0 $94 #
ellipse-curve $-1 -1 $-1 0 -2.479524658109012903e-15 0 -1 0 2.220446049250312588e-16 -1.221245327087672047e-16 0 -0.5500000000000000444 1 I I #
vertex $-1 -1 $-1 $84 0 $95 #
ellipse-curve $-1 -1 $-1 1.000000031914298537 -2.479524658109012903e-15 0 1 1.271551066141911392e-15 0 0 0 -0.5500000000000025979 1 I I #
point $-1 -1 $-1 4.900000156380059479 0 0 #
edge $-1 -1 $-1 $96 -3.141592653589793116 $96 3.141592653589793116 $86 $97 forward @7 unknown #
point $-1 -1 $-1 -8.741913579725641313e-17 -2.479524658109012903e-15 -0.5500000000000000444 #
point $-1 -1 $-1 1.000000031914297871 0.5500000000000000444 0 #
vertex $-1 -1 $-1 $93 0 $98 #
ellipse-curve $-1 -1 $-1 3 0 0 1 0 0 0 0 -0.2499999999999999722 1 I I #
point $-1 -1 $-1 3 -3.061616997868383018e-17 0.2499999999999999722 #
End-of-ASM-data 